<svg width="38" height="31" viewBox="0 0 38 31" fill="none" xmlns="http://www.w3.org/2000/svg">
<path fill-rule="evenodd" clip-rule="evenodd" d="M9.78882 7.4787C9.71449 7.54435 9.64024 7.60994 9.56757 7.67719C9.39955 7.8293 9.23436 7.9838 9.07192 8.1402C7.67241 9.48792 6.42625 11.0294 5.53083 12.754C4.63423 14.4809 4.10146 16.3894 4.15122 18.2652C4.1737 19.1113 4.31782 20.0097 4.81403 20.764C4.8995 20.894 4.99538 21.0182 5.10115 21.135L6.87585 23.1272L6.89311 23.1466C7.09714 23.3756 7.34081 23.5746 7.62327 23.7285C8.04774 23.9597 8.55117 24.0805 9.08475 24.0356C9.54716 23.9968 9.98204 23.8386 10.368 23.6299C10.7521 23.4221 11.0859 23.1667 11.387 22.9092C11.9885 22.3948 12.4764 21.875 12.9945 21.5383C13.92 20.9369 15.1191 20.7639 16.3275 20.7353C17.5432 20.7065 18.8475 20.8024 20.2169 20.4803C21.8832 20.0884 23.4279 19.087 24.5248 17.7387C25.6203 16.392 26.2463 14.7372 26.3227 13.1102C26.403 11.4006 25.8769 9.74683 24.8462 8.48263C24.787 8.40996 24.7256 8.3392 24.6632 8.26945L22.8713 6.25797C21.8479 5.10531 20.4087 4.33617 18.8118 4.09941C17.0496 3.83818 15.1879 4.22585 13.5163 4.99449C12.1486 5.62341 10.9085 6.49523 9.78981 7.47891L9.78882 7.4787ZM10.5675 8.29811C10.6466 8.22825 10.7271 8.16014 10.8075 8.09196C11.7732 7.27586 12.8147 6.57058 13.9265 6.05934C15.4048 5.3796 17.028 5.05337 18.5067 5.27259C19.9182 5.48184 21.2061 6.20127 22.0689 7.25954C22.9317 8.31789 23.3804 9.72758 23.3132 11.1604C23.2492 12.5232 22.7161 13.9241 21.8105 15.0372C20.9063 16.1488 19.6116 16.9844 18.2559 17.3033C17.132 17.5677 15.9163 17.4942 14.6262 17.5247C13.3288 17.5555 11.8769 17.7187 10.6044 18.5456C9.89099 19.0092 9.36629 19.5847 8.84926 20.0269C8.59104 20.2476 8.33377 20.4396 8.07412 20.5801C7.81625 20.7195 7.55108 20.8089 7.30918 20.8292C7.03221 20.8525 6.73954 20.7876 6.48945 20.6513C6.23732 20.514 6.01687 20.3017 5.8485 20.0457C5.50988 19.531 5.37717 18.8385 5.35772 18.1054C5.31424 16.4674 5.78362 14.7588 6.59401 13.1981C7.40552 11.6351 8.55347 10.207 9.86721 8.94186C10.0959 8.72174 10.3293 8.50668 10.5675 8.29812L10.5675 8.29811ZM11.2794 9.1058C11.0575 9.29871 10.8402 9.50016 10.6259 9.7067C9.39395 10.8931 8.33967 12.213 7.60812 13.6219C6.87997 15.0243 6.47101 16.5423 6.50846 17.9535C6.52504 18.5788 6.64697 19.075 6.8353 19.3613C6.92671 19.5003 7.03812 19.5982 7.12799 19.6472C7.21187 19.6929 7.30353 19.7045 7.33577 19.7018C7.36779 19.6991 7.47117 19.6753 7.60667 19.602C7.74739 19.5259 7.93181 19.3946 8.14921 19.2086C8.58576 18.8354 9.14542 18.2068 10.045 17.6222C11.6483 16.5803 13.3414 16.4263 14.7236 16.3936C16.0848 16.3613 17.2159 16.4135 18.1058 16.2042C19.1653 15.955 20.2216 15.2772 20.9423 14.3914C21.6667 13.5009 22.1111 12.3422 22.1633 11.2312C22.2182 10.0623 21.8432 8.88538 21.1403 8.02328C20.4377 7.16151 19.3637 6.56187 18.216 6.39172C17.0075 6.21256 15.6117 6.48018 14.3177 7.07518C13.3383 7.52553 12.3954 8.15916 11.5017 8.91461C11.4271 8.97742 11.3531 9.04127 11.2794 9.10579L11.2794 9.1058ZM16.5539 10.6203C16.9793 10.2446 17.4871 9.99643 17.9658 9.93037C18.4444 9.86431 18.8545 9.98578 19.106 10.2681C19.3575 10.5504 19.4297 10.9704 19.3068 11.4357C19.1838 11.901 18.8758 12.3735 18.4504 12.7492C18.2397 12.9353 18.0066 13.092 17.7644 13.2104C17.5221 13.3288 17.2754 13.4065 17.0385 13.4393C16.8015 13.472 16.5788 13.459 16.3831 13.401C16.1875 13.3431 16.0226 13.2413 15.8981 13.1015C15.7736 12.9617 15.6918 12.7867 15.6574 12.5863C15.6229 12.386 15.6365 12.1643 15.6974 11.9339C15.7583 11.7035 15.8653 11.4689 16.0122 11.2435C16.1592 11.0181 16.3432 10.8064 16.5539 10.6203Z" fill="#EE8383"/>
<path d="M33.9153 10.3439C32.0185 12.0041 31.7902 15.205 31.7902 15.205C13.8492 11.5234 10.2461 25.0288 10.2461 25.0288C10.2461 25.0288 22.0899 32.524 32.7714 17.7051C32.7714 17.7051 35.1183 19.9043 37.6432 19.8438C37.6432 19.8438 35.4469 18.1627 34.4461 15.6125C33.4458 13.0626 33.9153 10.3439 33.9153 10.3439ZM14.7578 23.1117C14.3372 23.2753 13.8492 23.0326 13.6676 22.5698C13.4859 22.1069 13.6795 21.5993 14.1001 21.4357C14.5206 21.2721 15.0085 21.5145 15.1902 21.9773C15.3718 22.4402 15.1783 22.9481 14.7578 23.1117ZM18.8103 25.183C18.7897 25.2859 18.7226 25.3615 18.6375 25.3946C18.583 25.4159 18.5201 25.4192 18.4568 25.3996C18.297 25.3511 18.1951 25.1745 18.2299 25.006C18.8565 21.9742 16.5837 20.5783 16.4872 20.5203C16.3397 20.4325 16.2784 20.2381 16.3503 20.0861C16.4215 19.9339 16.5984 19.8809 16.7462 19.9679C16.7742 19.9847 19.5382 21.6615 18.8103 25.183Z" fill="#7A7871"/>
</svg>
