<svg width="26" height="29" viewBox="0 0 26 29" fill="none" xmlns="http://www.w3.org/2000/svg">
<path fill-rule="evenodd" clip-rule="evenodd" d="M19.1832 24.6792C18.8242 23.3979 17.7537 21.893 16.9198 20.2677C17.6345 21.6608 18.3493 23.0539 19.1832 24.6792ZM21.1971 24.5328C20.0074 22.7957 19.2911 20.8178 18.5747 18.8398C17.9807 18.2637 17.5074 18.5046 17.0341 18.7455C16.2066 19.4594 15.3776 19.5885 16.3274 20.2764C17.517 22.0134 18.3509 23.6387 18.9482 25.3845C19.1848 25.264 19.6581 25.0232 19.8948 24.9027C20.3681 24.6619 20.4856 24.3093 21.1971 24.5328ZM16.0859 18.6424C15.7269 17.361 14.6563 15.8561 13.8224 14.2308C14.5372 15.624 15.252 17.0171 16.0859 18.6424ZM12.8694 12.3733C12.6295 11.3242 11.4399 9.5871 10.7251 8.19398C11.4399 9.5871 12.0355 10.748 12.9885 12.6055C12.9885 12.6055 12.9885 12.6055 12.8694 12.3733ZM14.8833 12.2269C13.8128 10.722 13.0964 8.74406 12.2609 6.53394C11.786 6.19 11.3127 6.43087 10.8394 6.67174C10.0119 7.38567 9.18288 7.51478 10.1327 8.20266C11.2032 9.70753 12.1563 11.565 12.7535 13.3108C12.9902 13.1903 13.4634 12.9495 13.7001 12.829C14.0543 12.356 14.2909 12.2355 14.8833 12.2269ZM9.77208 6.33648C9.53221 5.2873 8.34254 3.55024 7.62777 2.15712C8.34254 3.55024 8.93818 4.71118 9.89121 6.56867L9.77208 6.33648ZM11.786 6.19C10.7154 4.68513 9.99906 2.7072 9.16355 0.497088C8.68865 0.153149 8.21536 0.394018 7.74206 0.634886C6.91461 1.34881 5.96641 1.24574 7.03535 2.1658C8.10589 3.67068 9.05892 5.52817 9.65617 7.27391C9.89282 7.15348 10.3661 6.91261 10.4836 6.55999C10.9569 6.31912 11.1936 6.19869 11.786 6.19ZM11.3304 12.8638C10.3822 12.7607 9.67067 12.5372 8.72247 12.4341C9.67067 12.5372 10.2631 12.5285 11.3304 12.8638C9.90731 12.4167 8.83999 12.0815 7.53602 11.8667C8.60335 12.2019 9.55154 12.305 10.9746 12.752C9.43241 12.0728 8.12844 11.858 6.94199 11.2905C8.00931 11.6258 9.07664 11.9611 10.6189 12.6403C9.31328 11.8406 7.89019 11.3936 6.46709 10.9466C7.89019 11.3936 9.43241 12.0728 11.3304 12.8638C11.6862 12.9755 11.6862 12.9755 11.3304 12.8638ZM10.8571 13.1046C10.8571 13.1046 10.6205 13.2251 10.5013 12.9929C8.72408 13.0189 7.18347 12.9245 5.76198 13.0623C7.06595 13.2772 8.48744 13.1394 9.90892 13.0016C8.48744 13.1394 7.3026 13.1567 6.23689 13.4063C7.42173 13.3889 8.84321 13.2511 10.2647 13.1133C9.07986 13.1307 8.01415 13.3802 6.94843 13.6298C8.36992 13.492 9.43563 13.2424 10.6205 13.2251C9.79141 13.3542 8.96234 13.4833 8.13327 13.6124C8.96234 13.4833 9.79141 13.3542 10.6205 13.2251C10.8571 13.1046 10.8571 13.1046 10.8571 13.1046ZM11.5719 14.4977C11.0986 14.7386 10.7444 15.2117 10.0345 15.573C10.5078 15.3321 10.862 14.8591 11.5719 14.4977C10.862 14.8591 10.0345 15.573 9.32456 15.9343C10.0345 15.573 10.6253 14.9795 11.3352 14.6182C10.3887 15.0999 9.44208 15.5817 8.61462 16.2956C9.20543 15.7021 10.152 15.2204 11.0986 14.7386C10.152 15.2204 9.20543 15.7021 8.25885 16.1838C9.20543 15.7021 10.2695 14.8677 11.4528 14.2656C11.6894 14.1451 11.8085 14.3773 11.5719 14.4977ZM11.691 14.7299C11.4544 14.8504 11.4544 14.8504 11.4544 14.8504C10.5094 15.9169 9.80107 16.863 9.32939 17.6887C9.80107 16.863 10.5094 15.9169 11.1002 15.3234C10.6285 16.1491 10.0377 16.7426 9.56604 17.5683C10.0377 16.7426 10.746 15.7965 11.2177 14.9708C10.746 15.7965 10.511 16.5017 10.1568 16.9748C10.511 16.5017 10.9827 15.676 11.4544 14.8504C11.2193 15.5556 10.8652 16.0287 10.7477 16.3813C11.1018 15.9082 11.1002 15.3234 11.4544 14.8504L11.691 14.7299ZM12.2818 14.1364C12.5185 14.016 12.5185 14.016 12.7551 13.8956C12.8742 14.1278 12.8742 14.1278 13.23 14.2395C14.4197 15.9766 15.2536 17.6019 15.8508 19.3476C16.0875 19.2272 16.5608 18.9863 16.7974 18.8659C17.1516 18.3928 17.3882 18.2724 17.9807 18.2637C16.9101 16.7588 16.1937 14.7809 15.3582 12.5708C14.8833 12.2269 14.41 12.4677 13.9367 12.7086C13.3459 13.3021 12.7535 13.3108 12.636 13.6634C12.5169 13.4312 12.1611 13.3195 12.042 13.0873C11.9228 12.8551 11.5671 12.7433 10.973 12.1672C9.4308 11.488 6.94038 10.7057 5.63641 10.4909C5.9938 11.1875 7.8918 11.9784 9.43402 12.6576C7.89341 12.5632 5.8795 12.7097 4.69627 13.3119C5.88272 13.8793 10.2663 13.6981 11.5687 13.3281C11.5687 13.3281 11.8053 13.2077 11.9244 13.4399C12.2802 13.5516 12.636 13.6634 12.7551 13.8956C12.5185 14.016 12.2818 14.1364 11.9261 14.0247C11.9261 14.0247 11.6894 14.1451 11.2161 14.386C9.91376 14.756 8.37636 15.8312 7.54891 16.5451C8.26046 16.7686 9.68033 16.046 10.7444 15.2117C10.0361 16.1578 9.21026 17.4565 8.73858 18.2822C9.80429 18.0326 11.6926 15.3147 11.8085 14.3773C12.0452 14.2569 12.0452 14.2569 12.2818 14.1364Z" fill="#468E0D"/>
<path d="M22.1264 8.01256L22.1294 8.00168L22.1292 7.99038L22.0545 3.26908L22.0544 3.26129L22.0527 3.25368C22.0149 3.08051 22.0982 2.91328 22.282 2.77772C22.4659 2.64209 22.74 2.54815 23.0458 2.53025C23.6496 2.49491 24.3538 2.75611 24.6969 3.53849C24.55 4.22133 24.4666 4.89465 24.3837 5.56408L24.3835 5.56562C24.2994 6.24458 24.2157 6.91957 24.0672 7.60331L24.06 7.63621L24.0791 7.66396C25.9973 10.4581 26.2079 13.5037 25.2627 16.257C24.3168 19.0123 22.2123 21.4765 19.4991 23.097C16.7864 24.7172 13.469 25.4917 10.0995 24.8734C6.7347 24.2559 3.31112 22.2482 0.381637 18.2928C0.273208 17.8389 0.22964 17.4602 0.253007 17.1585C0.276611 16.8537 0.367757 16.6347 0.521334 16.4922C0.674714 16.3499 0.90239 16.2727 1.22268 16.2766C1.54309 16.2805 1.94901 16.3658 2.44842 16.5405C10.6251 19.9359 19.6831 16.7656 22.1264 8.01256Z" fill="#FFEE2E" stroke="#468E0D" stroke-width="0.155869"/>
</svg>
