<svg width="9" height="9" viewBox="0 0 9 9" fill="none" xmlns="http://www.w3.org/2000/svg">
<path d="M1.42914 8.48262C1.28486 8.48262 1.14058 8.42755 1.03044 8.31741C0.810165 8.09714 0.810165 7.74029 1.03044 7.52001L7.79735 0.753098C8.01763 0.532821 8.37448 0.532821 8.59476 0.753098C8.81503 0.973375 8.81503 1.33022 8.59476 1.5505L1.82785 8.31741C1.71771 8.42755 1.57343 8.48262 1.42914 8.48262Z" fill="#333B41"/>
<path d="M8.19605 8.48262C8.05177 8.48262 7.90749 8.42755 7.79735 8.31741L1.03044 1.5505C0.810165 1.33022 0.810165 0.973375 1.03044 0.753098C1.25072 0.532821 1.60757 0.532821 1.82785 0.753098L8.59476 7.52001C8.81503 7.74029 8.81503 8.09714 8.59476 8.31741C8.48462 8.42755 8.34034 8.48262 8.19605 8.48262Z" fill="#333B41"/>
</svg>
