<svg width="20" height="20" viewBox="0 0 20 20" fill="none" xmlns="http://www.w3.org/2000/svg">
<path fill-rule="evenodd" clip-rule="evenodd" d="M15.7387 10.0006C15.7387 13.1725 13.1721 15.7391 10.0002 15.7391C6.8283 15.7391 4.26172 13.1725 4.26172 10.0006C4.26172 6.82867 6.8283 4.26208 10.0002 4.26208C13.1721 4.26208 15.7387 6.82867 15.7387 10.0006ZM10.0002 5.15797C12.6879 5.15797 14.867 7.31293 14.867 10.0006C14.867 12.6882 12.6879 14.8674 10.0002 14.8674C7.31257 14.8674 5.1576 12.6882 5.1576 10.0006C5.1576 7.31293 7.31257 5.15797 10.0002 5.15797Z" fill="#FE9013"/>
<path fill-rule="evenodd" clip-rule="evenodd" d="M10 0C15.5206 0 20 4.47942 20 10C20 15.5206 15.5206 20 10 20C4.47942 20 0 15.5206 0 10C0 4.47942 4.47942 0 10 0ZM10 0.895884C15.0363 0.895884 19.1283 4.96368 19.1283 10C19.1283 15.0363 15.0363 19.1283 10 19.1283C4.96368 19.1283 0.895884 15.0363 0.895884 10C0.895884 4.96368 4.96368 0.895884 10 0.895884Z" fill="#FE9013"/>
</svg>
