<svg width="161" height="139" viewBox="0 0 161 139" fill="none" xmlns="http://www.w3.org/2000/svg">
<g clip-path="url(#clip0_153_78)">
<path d="M141.16 110.811C147.278 98.9795 152.255 84.471 152.255 69.0085C152.255 61.2415 149.828 52.4123 145.765 45.3911C142.211 39.2515 135.622 31.3193 124.401 28.3948C110.202 24.6942 95.815 28.1452 84.2547 30.9186C80.0769 31.9208 76.1307 32.8673 72.7506 33.3354C65.1706 34.3843 57.1621 34.2306 50.2778 33.9647H50.2733C49.1961 33.923 48.1438 33.8788 47.128 33.836C42.7785 33.6524 32.7615 33.4762 32.7615 33.4762C32.2149 31.1525 30.9687 29.2487 29.4131 28.3698C28.7541 28.0037 28.0346 27.8181 27.3076 27.8267C26.5805 27.8353 25.8642 28.0378 25.2114 28.4194C23.0718 29.5742 22.0459 32.14 22.5309 35.0367C19.1026 36.7965 15.7533 40.2993 13.722 43.0537C11.978 45.4185 10.499 49.1523 9.06822 52.7631C7.6114 56.4406 6.10521 60.2432 4.59783 61.7787C4.22883 62.1515 3.90251 62.5804 3.62721 63.0543C3.62242 63.0543 3.61764 63.0511 3.61255 63.0501C3.29735 62.9744 2.97236 62.9781 2.65842 63.0609C2.34449 63.1437 2.04854 63.3038 1.78956 63.5308C1.53058 63.7579 1.31428 64.0469 1.15454 64.3794C0.994793 64.7119 0.895129 65.0805 0.861937 65.4616C0.828745 65.8427 0.862759 66.2278 0.961795 66.5923C1.06083 66.9568 1.22271 67.2926 1.43704 67.5782C1.65137 67.8638 1.91342 68.0928 2.20639 68.2507C2.49937 68.4085 2.81679 68.4917 3.13831 68.4948C3.41048 69.5051 3.77806 70.4754 4.23399 71.3869C7.26732 77.6084 12.0656 81.4763 16.2991 84.8882C18.6328 86.7692 20.8368 88.546 22.5443 90.5304C23.8254 92.0712 24.9397 93.7968 25.8613 95.6671C25.8715 95.691 25.8849 95.7113 25.896 95.7345C27.6293 99.1902 29.0041 103.406 29.2608 107.433C29.5855 112.521 30.3535 126.257 30.595 130.597C29.7609 130.913 28.9784 131.397 28.2815 132.028C27.7631 132.495 27.3827 133.146 27.1954 133.888C27.0081 134.63 27.0235 135.423 27.2394 136.154C27.4444 136.899 27.843 137.548 28.3777 138.006C28.9124 138.463 29.5554 138.707 30.2138 138.701H44.3918C44.8486 138.701 45.2999 138.583 45.7141 138.353C46.1282 138.123 46.495 137.788 46.7887 137.371C49.9244 132.929 57.7459 121.479 62.6956 111.09C81.8571 111.068 94.9437 110.239 102.577 108.559C103.714 117.124 105.216 126.884 105.765 130.404C105.291 130.668 104.843 130.993 104.428 131.373C103.861 131.894 103.445 132.614 103.239 133.431C103.032 134.248 103.045 135.121 103.276 135.929C103.507 136.737 103.944 137.439 104.526 137.935C105.108 138.432 105.807 138.7 106.523 138.7H119.812C120.598 138.699 121.361 138.377 121.972 137.788C126.355 133.552 134.374 123.876 141.061 111.004C141.098 110.943 141.131 110.878 141.16 110.811ZM47.5065 70.1009C43.2199 80.805 35.6743 89.4637 27.6365 92.9954C26.7136 91.2749 25.6372 89.6785 24.426 88.2341C22.5458 86.049 20.2449 84.1947 17.8088 82.231C13.62 78.8541 9.28724 75.3624 6.56329 69.775C4.90511 66.3742 5.52446 65.0573 6.34846 64.218C8.29508 62.2351 9.85393 58.2998 11.5046 54.1329C12.8552 50.7228 14.2519 47.1968 15.7458 45.1721C17.5536 42.7204 20.7686 39.3299 23.8797 37.8432C24.1853 37.6967 24.4601 37.4717 24.6845 37.1844C26.3852 40.1463 30.4358 39.7096 31.4525 37.0125C31.5234 36.8188 31.576 36.6162 31.6093 36.4086C35.8906 37.0721 42.7124 36.8596 47.0332 37.0428C47.7656 37.0739 48.5208 37.1052 49.2856 37.1359C52.4365 47.6792 51.8151 59.3423 47.5065 70.1009ZM130.128 99.4897C127.618 98.9339 115.16 96.6889 104.711 103.986C104.214 99.9617 103.875 96.6151 103.875 94.9794C103.875 94.5539 103.733 94.1458 103.481 93.845C103.228 93.5441 102.886 93.3751 102.529 93.3751C102.172 93.3751 101.829 93.5441 101.577 93.845C101.324 94.1458 101.182 94.5539 101.182 94.9794C101.182 96.8789 101.589 100.794 102.166 105.387C95.6465 106.838 84.8959 107.646 69.4857 107.838C72.5534 105.618 74.9997 102.432 76.7863 98.2875C79.2741 92.5201 80.3737 85.0058 79.9662 76.5567C79.5072 67.0377 73.3682 54.2159 68.4352 43.9147C67.2925 41.5293 66.1986 39.2443 65.2876 37.2222C67.882 37.0956 70.4907 36.8781 73.0603 36.5223C76.5514 36.0396 80.5508 35.0799 84.7849 34.0624C96.098 31.3482 110.177 27.9702 123.825 31.5279C142.574 36.4164 149.562 57.1119 149.562 69.0085C149.562 82.7009 145.478 95.6404 140.21 106.512C138.663 103.755 135.439 100.667 130.128 99.4897Z" fill="black"/>
<path d="M18.895 50.6011C13.476 48.1059 10.3241 55.1134 13.7728 59.2287C15.6587 61.4778 17.4515 66.6896 21.5493 66.2573C28.0597 65.572 27.4602 54.5406 18.895 50.6011ZM16.4402 57.3812C16.1188 57.3812 15.8046 57.2661 15.5374 57.0506C15.2702 56.835 15.062 56.5285 14.939 56.17C14.816 55.8115 14.7838 55.417 14.8465 55.0364C14.9092 54.6558 15.064 54.3062 15.2912 54.0318C15.5185 53.7574 15.808 53.5705 16.1232 53.4948C16.4384 53.4191 16.7651 53.458 17.062 53.6065C17.3589 53.755 17.6126 54.0065 17.7912 54.3291C17.9697 54.6518 18.065 55.0311 18.065 55.4192C18.0649 55.9395 17.8937 56.4385 17.589 56.8064C17.2843 57.1744 16.8711 57.3811 16.4402 57.3812Z" fill="black"/>
<path d="M77.1638 114.161C77.1472 114.082 77.1086 114.012 77.0542 113.962C76.9997 113.912 76.9327 113.886 76.8638 113.886C75.3944 113.905 67.6157 114.001 64.3177 114.016C64.2669 114.016 64.217 114.031 64.1727 114.06C64.1284 114.09 64.0911 114.132 64.0645 114.183C61.9445 118.16 58.2259 124.349 55.7699 128.378C55.7295 128.445 55.7095 128.526 55.7134 128.607C55.7172 128.689 55.7446 128.766 55.791 128.827L59.2228 133.367L59.1861 133.432C59.1739 133.458 59.1587 133.483 59.1464 133.508C58.8787 134.026 58.7327 134.619 58.7233 135.225C58.714 135.832 58.8418 136.43 59.0935 136.959C59.3451 137.488 59.7116 137.928 60.1552 138.234C60.5988 138.541 61.1035 138.702 61.6174 138.701H76.2108C76.5968 138.701 76.9789 138.609 77.3345 138.432C77.6901 138.255 78.0122 137.996 78.2817 137.669C78.5512 137.343 78.7627 136.957 78.9038 136.532C79.0449 136.108 79.1127 135.655 79.1032 135.199C79.0544 132.852 78.9261 129.166 78.6084 125.167C78.3454 121.463 77.8627 117.785 77.1638 114.161Z" fill="black"/>
<path d="M149.114 100.962C149.095 100.893 149.058 100.833 149.01 100.79C148.961 100.747 148.903 100.723 148.843 100.721C148.783 100.719 148.724 100.739 148.674 100.778C148.623 100.818 148.584 100.875 148.561 100.942C148.164 102.115 147.718 103.263 147.225 104.382C143.107 113.749 138.112 122.509 132.34 130.487C132.291 130.554 132.264 130.641 132.266 130.731C132.267 130.82 132.296 130.906 132.347 130.971L133.345 132.249C133.052 132.67 132.806 133.137 132.614 133.636C132.407 134.189 132.319 134.795 132.357 135.4C132.395 136.005 132.559 136.588 132.833 137.095C133.076 137.578 133.416 137.978 133.821 138.259C134.226 138.54 134.683 138.692 135.149 138.702H150.299C150.673 138.702 151.044 138.611 151.388 138.435C151.733 138.258 152.045 138 152.307 137.675C152.568 137.35 152.773 136.965 152.91 136.543C153.047 136.12 153.113 135.669 153.104 135.215C152.954 127.909 152.259 111.718 149.114 100.962Z" fill="black"/>
</g>
<defs>
<clipPath id="clip0_153_78">
<rect width="160.15" height="138.722" fill="white" transform="translate(0.849609 0.27832)"/>
</clipPath>
</defs>
</svg>
